<svg width="27" height="32" viewBox="0 0 27 32" fill="none" xmlns="http://www.w3.org/2000/svg">
<path d="M12 0.166656V10.4583C12 11.0882 12.2371 11.6923 12.659 12.1377C13.081 12.5831 13.6533 12.8333 14.25 12.8333H24V21.9486L22.0605 19.9013C21.9211 19.7543 21.7557 19.6377 21.5737 19.5582C21.3916 19.4787 21.1965 19.4378 20.9995 19.4379C20.8024 19.438 20.6074 19.479 20.4254 19.5586C20.2434 19.6383 20.078 19.755 19.9387 19.9021C19.7995 20.0492 19.689 20.2238 19.6137 20.416C19.5384 20.6082 19.4996 20.8141 19.4997 21.0221C19.4998 21.2301 19.5386 21.436 19.6141 21.6281C19.6896 21.8202 19.8001 21.9947 19.9395 22.1417L21.621 23.9167H15C14.6022 23.9167 14.2206 24.0835 13.9393 24.3804C13.658 24.6773 13.5 25.0801 13.5 25.5C13.5 25.9199 13.658 26.3226 13.9393 26.6196C14.2206 26.9165 14.6022 27.0833 15 27.0833H21.621L19.9395 28.8582C19.658 29.1551 19.4998 29.5579 19.4997 29.9779C19.4996 30.3979 19.6575 30.8008 19.9387 31.0979C20.22 31.395 20.6016 31.562 20.9995 31.5621C21.3974 31.5623 21.779 31.3955 22.0605 31.0987L23.9745 29.0767C23.8802 29.839 23.5264 30.5391 22.9791 31.0463C22.4317 31.5535 21.7283 31.8333 21 31.8333H3C2.20435 31.8333 1.44129 31.4997 0.87868 30.9058C0.31607 30.312 0 29.5065 0 28.6667V3.33332C0 2.49347 0.31607 1.68802 0.87868 1.09415C1.44129 0.500286 2.20435 0.166656 3 0.166656H12ZM24 21.9486L26.3025 24.3806C26.5837 24.6775 26.7417 25.0801 26.7417 25.5C26.7417 25.9198 26.5837 26.3225 26.3025 26.6194L24 29.0514V21.9486ZM15 0.23474C15.5683 0.361969 16.0894 0.660643 16.5 1.09449L23.121 8.08332C23.532 8.51672 23.815 9.06676 23.9355 9.66666H15V0.23474Z" fill="#fff"/>
</svg>
